<?xml version="1.0" encoding="utf-8"?>
<!-- Generator: Adobe Illustrator 19.0.0, SVG Export Plug-In . SVG Version: 6.00 Build 0)  -->
<svg version="1.1" id="Layer_1" xmlns="http://www.w3.org/2000/svg" xmlns:xlink="http://www.w3.org/1999/xlink" x="0px" y="0px"
	 viewBox="0 0 125.1 122.8" style="enable-background:new 0 0 125.1 122.8;" xml:space="preserve">
<style type="text/css">
	.st0{fill:#FFFFFF;}
</style>
<polygon class="st0" points="23.5,8.5 0,38 51.7,38 51.7,35 6.2,35 25.8,10.5 "/>
<polygon class="st0" points="101.6,8.5 125.1,38 73.4,38 73.4,35 118.9,35 99.3,10.5 "/>
<polygon class="st0" points="113.3,55.6 120,45.3 72.4,45.3 72.4,48.3 113.9,48.3 109.1,55.6 "/>
<polygon class="st0" points="11.6,55.6 4.5,45.3 52.2,45.3 52.2,48.3 10.7,48.3 15.4,55.6 "/>
<polygon class="st0" points="66.5,31.3 90,1.8 38.3,1.8 38.3,4.8 83.8,4.8 64.2,29.2 "/>
<path class="st0" d="M27.5,0c-3.3,0-6,2.7-6,6c0,3.3,2.7,6,6,6c3.3,0,6-2.7,6-6C33.5,2.7,30.8,0,27.5,0z M27.5,8.8
	c-1.5,0-2.8-1.3-2.8-2.8s1.3-2.8,2.8-2.8c1.5,0,2.8,1.2,2.8,2.8S29,8.8,27.5,8.8z"/>
<path class="st0" d="M62.4,27.6c-3.3,0-6,2.7-6,6c0,3.3,2.7,6,6,6c3.3,0,6-2.7,6-6C68.4,30.3,65.7,27.6,62.4,27.6z M62.4,36.3
	c-1.5,0-2.8-1.3-2.8-2.8s1.3-2.8,2.8-2.8s2.8,1.3,2.8,2.8S63.9,36.3,62.4,36.3z"/>
<path class="st0" d="M68.4,40.9c-3.3,0-6,2.7-6,6c0,3.3,2.7,6,6,6c3.3,0,6-2.7,6-6C74.3,43.6,71.6,40.9,68.4,40.9z M68.4,49.7
	c-1.5,0-2.8-1.3-2.8-2.8s1.3-2.8,2.8-2.8c1.5,0,2.8,1.3,2.8,2.8S69.9,49.7,68.4,49.7z"/>
<path class="st0" d="M55.1,110.9c-3.3,0-6,2.7-6,6s2.7,6,6,6c3.3,0,6-2.7,6-6S58.4,110.9,55.1,110.9z M55.1,119.7
	c-1.5,0-2.8-1.3-2.8-2.8s1.3-2.8,2.8-2.8c1.5,0,2.8,1.3,2.8,2.8S56.6,119.7,55.1,119.7z"/>
<path class="st0" d="M97.5,0c-3.3,0-6,2.7-6,6c0,3.3,2.7,6,6,6c3.3,0,6-2.7,6-6C103.4,2.7,100.8,0,97.5,0z M97.5,8.8
	c-1.5,0-2.8-1.3-2.8-2.8s1.3-2.8,2.8-2.8c1.5,0,2.8,1.2,2.8,2.8S99,8.8,97.5,8.8z"/>
<g>
	<rect x="9.8" y="59.6" class="st0" width="14.3" height="4.3"/>
	<rect x="14.8" y="66" class="st0" width="4.8" height="13.8"/>
</g>
<g>
	<path class="st0" d="M25.4,68.9h4.7c0,0,0.6-5.3,7.4-5.3c5.5,0,6.6,5.3,6.6,5.3h4.8c0,0-1-9.8-11.8-9.8
		C26.5,59.1,25.4,68.9,25.4,68.9z"/>
	<path class="st0" d="M48.9,70.6h-4.7c0,0-1,5.2-7.4,5.3c-5.5,0.1-6.6-5.3-6.6-5.3h-4.8c0,0,1,9.8,11.8,9.8
		C47.9,80.3,48.9,70.6,48.9,70.6z"/>
</g>
<g>
	<rect x="51.5" y="60" class="st0" width="4.7" height="19.8"/>
	<path class="st0" d="M58.4,64c0,0,1.3,0,2.8,0c1.2,0,2.2,0.4,2.2,1.8c0,1.2-0.7,2.1-2,2.1c-1.7,0-3,0-3,0V72c0,0,3.8,0.4,6-0.3
		c2.3-0.7,4-2.8,4-6c0-7.6-10-5.7-10-5.7V64z"/>
</g>
<g>
	<polygon class="st0" points="75,66 66.7,80 72.2,80 77.8,70.6 	"/>
	<polygon class="st0" points="76.3,64 79,59.3 91.5,80 86,80 	"/>
	<polygon class="st0" points="76.6,76.5 79.3,72.4 83.5,72.4 84.2,76.5 	"/>
</g>
<polygon class="st0" points="113.1,75.8 113.1,80 92.2,80 95.2,75.8 "/>
<polygon class="st0" points="96.7,73.8 102.4,73.7 107.9,66 102.2,66 "/>
<polygon class="st0" points="92.3,59.8 92.3,64.1 109.1,64.1 112.2,59.8 "/>
<polygon class="st0" points="40.7,98.2 51.3,113.5 53.6,111.1 44.8,98.2 "/>
<polygon class="st0" points="66.8,116 79.3,98.2 83.3,98.2 69.7,118.1 "/>
<g>
	<path class="st0" d="M15.4,93.4H9.8v-7.5h5.5v1.3h-3.9v1.6H15v1.3h-3.6v2h4V93.4z"/>
	<path class="st0" d="M34.5,93.4H29v-7.5h5.5v1.3h-3.9v1.6h3.6v1.3h-3.6v2h4V93.4z"/>
	<path class="st0" d="M24.4,93.4h-4.6v-7.5h1.4v6.2h3.1V93.4z"/>
	<path class="st0" d="M43.7,90.5l1.5,0.4c-0.1,0.8-0.5,1.4-1.1,1.9c-0.6,0.5-1.3,0.8-2.2,0.8c-0.8,0-1.4-0.2-1.9-0.5
		c-0.5-0.4-0.8-0.8-1.1-1.5c-0.3-0.6-0.4-1.3-0.4-2c0-1.2,0.3-2.1,0.9-2.9c0.6-0.7,1.4-1.1,2.5-1.1c0.8,0,1.5,0.2,2.1,0.7
		c0.6,0.5,0.9,1.2,1,2l-1.6,0.2c-0.3-1.2-0.7-1.4-1.5-1.5c-0.8,0-1.3,0.3-1.5,0.9c-0.2,0.5-0.3,0.8-0.3,1.8c0,0.9,0.2,1.5,0.5,2
		c0.3,0.5,0.7,0.6,1.3,0.6c0.4,0,0.8-0.1,1.2-0.5C43.4,91.5,43.6,90.9,43.7,90.5z"/>
	<path class="st0" d="M101.8,90.5l1.5,0.4c-0.1,0.8-0.5,1.4-1.1,1.9c-0.6,0.5-1.3,0.8-2.2,0.8c-0.8,0-1.4-0.2-1.9-0.5
		c-0.5-0.4-0.8-0.8-1.1-1.5c-0.3-0.6-0.4-1.3-0.4-2c0-1.2,0.3-2.1,0.9-2.9c0.6-0.7,1.4-1.1,2.5-1.1c0.8,0,1.5,0.2,2.1,0.7
		c0.6,0.5,0.9,1.2,1,2l-1.6,0.2c-0.3-1.2-0.7-1.4-1.5-1.5c-0.8,0-1.3,0.3-1.5,0.9c-0.2,0.5-0.4,0.8-0.4,1.8c0,0.9,0.2,1.4,0.5,1.9
		c0.3,0.5,0.8,0.7,1.3,0.7c0.4,0,0.8-0.1,1.2-0.5C101.5,91.5,101.8,90.9,101.8,90.5z"/>
	<path class="st0" d="M52.4,93.4H51v-6.3h-2v-1.2h5.5v1.2h-2V93.4z"/>
	<path class="st0" d="M65.4,93.4l-1.8,0l-1.9-3h-1.4v3h-1.6v-7.8h3.2c0.9,0,1.6,0.2,2.1,0.6c0.4,0.4,0.8,0.9,0.8,1.6
		c0,1.2-0.6,1.8-1.6,2.1L65.4,93.4z M60.3,89.2l1.5,0c0.5,0,0.9-0.1,1.1-0.3c0.2-0.2,0.4-0.5,0.4-0.9c0-0.4-0.1-0.7-0.3-0.9
		c-0.2-0.2-0.7-0.3-1.1-0.3l-1.6,0V89.2z"/>
	<path class="st0" d="M72.4,93.7c-1.1,0-2-0.4-2.6-1.2c-0.6-0.8-0.9-1.8-0.9-3c0-1.2,0.3-2.1,1-2.9c0.7-0.8,1.5-1.2,2.6-1.2
		c1.1,0,1.9,0.4,2.6,1.2c0.6,0.8,0.9,1.8,0.9,2.9c0,1.2-0.3,2.2-1,3C74.4,93.3,73.5,93.7,72.4,93.7z M72.4,92.3c0.5,0,1-0.1,1.4-0.5
		c0.4-0.4,0.8-0.9,0.8-2c0-0.9-0.3-1.5-0.6-2c-0.3-0.5-0.8-0.7-1.5-0.7c-1.3,0-2,0.7-2,2.5c0,1,0.2,1.4,0.5,1.9
		C71.3,92,71.7,92.3,72.4,92.3z"/>
	<path class="st0" d="M86,93.4h-1.4l-2.9-4.9l0,4.9h-1.5v-7.6h1.5c0,0,2.7,4.3,3,4.9l0-4.9H86V93.4z"/>
	<path class="st0" d="M92.2,93.4h-1.4v-7.6h1.4V93.4z"/>
	<path class="st0" d="M107,91l1.4-0.7c0.2,0.7,0.6,1.8,1.7,1.8c0.5,0,0.8,0,1.1-0.2c0.3-0.2,0.4-0.4,0.4-0.7c0-0.3-0.1-0.4-0.2-0.6
		c-0.1-0.2-0.4-0.3-0.8-0.4l-1.2-0.3c-0.5-0.1-0.9-0.3-1.1-0.5c-0.2-0.2-0.5-0.3-0.7-0.6c-0.1-0.3-0.3-0.7-0.3-1.1
		c0-0.7,0.3-1.2,0.8-1.6c0.5-0.4,1.1-0.7,1.9-0.7c0.9,0,1.7,0.2,2.1,0.7c0.7,0.9,0.7,1.3,0.8,2h-1.5c-0.2-0.6-0.3-1.4-1.4-1.4
		c-0.4,0-0.8,0.1-1,0.3c-0.2,0.2-0.3,0.4-0.3,0.6c0,0.4,0.2,0.7,1,0.8l1.3,0.3c0.8,0.2,1.3,0.5,1.6,0.9c0.3,0.4,0.4,0.8,0.4,1.3
		c0,0.7-0.3,1.3-0.8,1.7c-0.6,0.4-1.3,0.6-2.2,0.6c-0.8,0-1.1,0-1.7-0.3C107.8,92.8,107.2,91.7,107,91z"/>
</g>
</svg>
